<mxfile host="app.diagrams.net" agent="Mozilla/5.0 (Windows NT 10.0; Win64; x64) AppleWebKit/537.36 (KHTML, like Gecko) Chrome/135.0.0.0 Safari/537.36" version="26.2.14">
  <diagram name="Page-1" id="JM8MNfycMdLa7T5gEaST">
    <mxGraphModel dx="4191" dy="2451" grid="1" gridSize="10" guides="1" tooltips="1" connect="1" arrows="1" fold="1" page="1" pageScale="1" pageWidth="850" pageHeight="1100" math="0" shadow="0">
      <root>
        <mxCell id="0" />
        <mxCell id="1" parent="0" />
        <mxCell id="n1WhY-lI0MyOK2rK_cIN-1" value="Department" style="whiteSpace=wrap;html=1;align=center;" parent="1" vertex="1">
          <mxGeometry x="-450" y="-130" width="100" height="40" as="geometry" />
        </mxCell>
        <mxCell id="n1WhY-lI0MyOK2rK_cIN-23" style="edgeStyle=orthogonalEdgeStyle;rounded=0;orthogonalLoop=1;jettySize=auto;html=1;exitX=1;exitY=0.5;exitDx=0;exitDy=0;entryX=0;entryY=0.5;entryDx=0;entryDy=0;endArrow=none;startFill=0;" parent="1" source="n1WhY-lI0MyOK2rK_cIN-4" target="n1WhY-lI0MyOK2rK_cIN-1" edge="1">
          <mxGeometry relative="1" as="geometry" />
        </mxCell>
        <mxCell id="n1WhY-lI0MyOK2rK_cIN-4" value="ContactNumber" style="ellipse;whiteSpace=wrap;html=1;align=center;" parent="1" vertex="1">
          <mxGeometry x="-580" y="-100" width="100" height="40" as="geometry" />
        </mxCell>
        <mxCell id="n1WhY-lI0MyOK2rK_cIN-9" style="edgeStyle=orthogonalEdgeStyle;rounded=0;orthogonalLoop=1;jettySize=auto;html=1;entryX=0.25;entryY=0;entryDx=0;entryDy=0;endArrow=none;startFill=0;" parent="1" source="n1WhY-lI0MyOK2rK_cIN-5" target="n1WhY-lI0MyOK2rK_cIN-1" edge="1">
          <mxGeometry relative="1" as="geometry">
            <Array as="points">
              <mxPoint x="-430" y="-170" />
              <mxPoint x="-425" y="-170" />
            </Array>
          </mxGeometry>
        </mxCell>
        <mxCell id="n1WhY-lI0MyOK2rK_cIN-5" value="&lt;u&gt;Department_ID&lt;/u&gt;" style="ellipse;whiteSpace=wrap;html=1;align=center;" parent="1" vertex="1">
          <mxGeometry x="-480" y="-180" width="100" height="40" as="geometry" />
        </mxCell>
        <mxCell id="n1WhY-lI0MyOK2rK_cIN-22" style="edgeStyle=orthogonalEdgeStyle;rounded=0;orthogonalLoop=1;jettySize=auto;html=1;exitX=0.5;exitY=1;exitDx=0;exitDy=0;entryX=0;entryY=0.25;entryDx=0;entryDy=0;endArrow=none;startFill=0;" parent="1" source="n1WhY-lI0MyOK2rK_cIN-6" target="n1WhY-lI0MyOK2rK_cIN-1" edge="1">
          <mxGeometry relative="1" as="geometry" />
        </mxCell>
        <mxCell id="n1WhY-lI0MyOK2rK_cIN-6" value="Location" style="ellipse;whiteSpace=wrap;html=1;align=center;" parent="1" vertex="1">
          <mxGeometry x="-580" y="-180" width="100" height="40" as="geometry" />
        </mxCell>
        <mxCell id="n1WhY-lI0MyOK2rK_cIN-10" style="edgeStyle=orthogonalEdgeStyle;rounded=0;orthogonalLoop=1;jettySize=auto;html=1;entryX=0.75;entryY=0;entryDx=0;entryDy=0;endArrow=none;startFill=0;" parent="1" source="n1WhY-lI0MyOK2rK_cIN-7" target="n1WhY-lI0MyOK2rK_cIN-1" edge="1">
          <mxGeometry relative="1" as="geometry">
            <Array as="points">
              <mxPoint x="-320" y="-170" />
              <mxPoint x="-375" y="-170" />
            </Array>
          </mxGeometry>
        </mxCell>
        <mxCell id="n1WhY-lI0MyOK2rK_cIN-7" value="DepartmentName" style="ellipse;whiteSpace=wrap;html=1;align=center;" parent="1" vertex="1">
          <mxGeometry x="-380" y="-180" width="100" height="40" as="geometry" />
        </mxCell>
        <mxCell id="n1WhY-lI0MyOK2rK_cIN-40" value="Doctors" style="whiteSpace=wrap;html=1;align=center;" parent="1" vertex="1">
          <mxGeometry x="397.5" y="-375" width="100" height="60" as="geometry" />
        </mxCell>
        <mxCell id="n1WhY-lI0MyOK2rK_cIN-41" style="edgeStyle=orthogonalEdgeStyle;rounded=0;orthogonalLoop=1;jettySize=auto;html=1;exitX=1;exitY=0.5;exitDx=0;exitDy=0;entryX=0;entryY=0.5;entryDx=0;entryDy=0;endArrow=none;startFill=0;" parent="1" source="n1WhY-lI0MyOK2rK_cIN-42" target="n1WhY-lI0MyOK2rK_cIN-40" edge="1">
          <mxGeometry relative="1" as="geometry" />
        </mxCell>
        <mxCell id="n1WhY-lI0MyOK2rK_cIN-42" value="ContactNumber" style="ellipse;whiteSpace=wrap;html=1;align=center;" parent="1" vertex="1">
          <mxGeometry x="297.5" y="-350" width="85" height="30" as="geometry" />
        </mxCell>
        <mxCell id="n1WhY-lI0MyOK2rK_cIN-43" style="edgeStyle=orthogonalEdgeStyle;rounded=0;orthogonalLoop=1;jettySize=auto;html=1;entryX=0.25;entryY=0;entryDx=0;entryDy=0;endArrow=none;startFill=0;" parent="1" source="n1WhY-lI0MyOK2rK_cIN-44" target="n1WhY-lI0MyOK2rK_cIN-40" edge="1">
          <mxGeometry relative="1" as="geometry">
            <Array as="points">
              <mxPoint x="422.5" y="-410" />
              <mxPoint x="427.5" y="-410" />
            </Array>
          </mxGeometry>
        </mxCell>
        <mxCell id="n1WhY-lI0MyOK2rK_cIN-44" value="&lt;u&gt;Doctor id&lt;/u&gt;" style="ellipse;whiteSpace=wrap;html=1;align=center;" parent="1" vertex="1">
          <mxGeometry x="397.5" y="-410" width="65" height="30" as="geometry" />
        </mxCell>
        <mxCell id="n1WhY-lI0MyOK2rK_cIN-45" style="edgeStyle=orthogonalEdgeStyle;rounded=0;orthogonalLoop=1;jettySize=auto;html=1;exitX=0.5;exitY=1;exitDx=0;exitDy=0;entryX=0;entryY=0.25;entryDx=0;entryDy=0;endArrow=none;startFill=0;" parent="1" source="n1WhY-lI0MyOK2rK_cIN-46" target="n1WhY-lI0MyOK2rK_cIN-40" edge="1">
          <mxGeometry relative="1" as="geometry" />
        </mxCell>
        <mxCell id="n1WhY-lI0MyOK2rK_cIN-46" value="Name" style="ellipse;whiteSpace=wrap;html=1;align=center;" parent="1" vertex="1">
          <mxGeometry x="327.5" y="-385" width="55" height="10" as="geometry" />
        </mxCell>
        <mxCell id="n1WhY-lI0MyOK2rK_cIN-47" style="edgeStyle=orthogonalEdgeStyle;rounded=0;orthogonalLoop=1;jettySize=auto;html=1;entryX=0.75;entryY=0;entryDx=0;entryDy=0;endArrow=none;startFill=0;" parent="1" source="n1WhY-lI0MyOK2rK_cIN-48" target="n1WhY-lI0MyOK2rK_cIN-40" edge="1">
          <mxGeometry relative="1" as="geometry">
            <Array as="points">
              <mxPoint x="532.5" y="-410" />
              <mxPoint x="477.5" y="-410" />
            </Array>
          </mxGeometry>
        </mxCell>
        <mxCell id="n1WhY-lI0MyOK2rK_cIN-48" value="Specialization" style="ellipse;whiteSpace=wrap;html=1;align=center;" parent="1" vertex="1">
          <mxGeometry x="472.5" y="-410" width="75" height="30" as="geometry" />
        </mxCell>
        <mxCell id="n1WhY-lI0MyOK2rK_cIN-49" value="LiscenceNumber" style="ellipse;whiteSpace=wrap;html=1;align=center;" parent="1" vertex="1">
          <mxGeometry x="522.5" y="-330" width="90" height="30" as="geometry" />
        </mxCell>
        <mxCell id="n1WhY-lI0MyOK2rK_cIN-55" style="edgeStyle=orthogonalEdgeStyle;rounded=0;orthogonalLoop=1;jettySize=auto;html=1;exitX=0;exitY=0.5;exitDx=0;exitDy=0;entryX=1;entryY=0.5;entryDx=0;entryDy=0;endArrow=none;startFill=0;" parent="1" source="n1WhY-lI0MyOK2rK_cIN-50" target="n1WhY-lI0MyOK2rK_cIN-40" edge="1">
          <mxGeometry relative="1" as="geometry" />
        </mxCell>
        <mxCell id="n1WhY-lI0MyOK2rK_cIN-50" value="Departmentid" style="ellipse;whiteSpace=wrap;html=1;align=center;" parent="1" vertex="1">
          <mxGeometry x="527.5" y="-360" width="80" height="30" as="geometry" />
        </mxCell>
        <mxCell id="n1WhY-lI0MyOK2rK_cIN-54" style="edgeStyle=orthogonalEdgeStyle;rounded=0;orthogonalLoop=1;jettySize=auto;html=1;exitX=0;exitY=0.5;exitDx=0;exitDy=0;entryX=1;entryY=0;entryDx=0;entryDy=0;endArrow=none;startFill=0;" parent="1" source="n1WhY-lI0MyOK2rK_cIN-51" target="n1WhY-lI0MyOK2rK_cIN-40" edge="1">
          <mxGeometry relative="1" as="geometry" />
        </mxCell>
        <mxCell id="n1WhY-lI0MyOK2rK_cIN-51" value="Email" style="ellipse;whiteSpace=wrap;html=1;align=center;" parent="1" vertex="1">
          <mxGeometry x="517.5" y="-380" width="40" height="20" as="geometry" />
        </mxCell>
        <mxCell id="n1WhY-lI0MyOK2rK_cIN-52" value="YearsOfExperience" style="ellipse;whiteSpace=wrap;html=1;align=center;" parent="1" vertex="1">
          <mxGeometry x="507.5" y="-300" width="95" height="40" as="geometry" />
        </mxCell>
        <mxCell id="n1WhY-lI0MyOK2rK_cIN-60" style="edgeStyle=orthogonalEdgeStyle;rounded=0;orthogonalLoop=1;jettySize=auto;html=1;entryX=1;entryY=0.25;entryDx=0;entryDy=0;endArrow=none;startFill=0;" parent="1" source="n1WhY-lI0MyOK2rK_cIN-53" target="n1WhY-lI0MyOK2rK_cIN-1" edge="1">
          <mxGeometry relative="1" as="geometry" />
        </mxCell>
        <mxCell id="n1WhY-lI0MyOK2rK_cIN-53" value="HeadquarterID" style="ellipse;whiteSpace=wrap;html=1;align=center;" parent="1" vertex="1">
          <mxGeometry x="-330" y="-135" width="80" height="30" as="geometry" />
        </mxCell>
        <mxCell id="n1WhY-lI0MyOK2rK_cIN-56" style="edgeStyle=orthogonalEdgeStyle;rounded=0;orthogonalLoop=1;jettySize=auto;html=1;exitX=0;exitY=0.5;exitDx=0;exitDy=0;entryX=0.988;entryY=0.892;entryDx=0;entryDy=0;entryPerimeter=0;endArrow=none;startFill=0;" parent="1" source="n1WhY-lI0MyOK2rK_cIN-49" target="n1WhY-lI0MyOK2rK_cIN-40" edge="1">
          <mxGeometry relative="1" as="geometry" />
        </mxCell>
        <mxCell id="n1WhY-lI0MyOK2rK_cIN-58" style="edgeStyle=orthogonalEdgeStyle;rounded=0;orthogonalLoop=1;jettySize=auto;html=1;exitX=0;exitY=0.5;exitDx=0;exitDy=0;endArrow=none;startFill=0;" parent="1" source="n1WhY-lI0MyOK2rK_cIN-52" edge="1">
          <mxGeometry relative="1" as="geometry">
            <mxPoint x="489.5" y="-310" as="targetPoint" />
          </mxGeometry>
        </mxCell>
        <mxCell id="n1WhY-lI0MyOK2rK_cIN-61" value="Room" style="whiteSpace=wrap;html=1;align=center;" parent="1" vertex="1">
          <mxGeometry x="-530" y="90" width="100" height="100" as="geometry" />
        </mxCell>
        <mxCell id="n1WhY-lI0MyOK2rK_cIN-62" value="DepartmentID" style="ellipse;whiteSpace=wrap;html=1;align=center;" parent="1" vertex="1">
          <mxGeometry x="-660" y="170" width="100" height="40" as="geometry" />
        </mxCell>
        <mxCell id="n1WhY-lI0MyOK2rK_cIN-64" value="RatePerDay" style="ellipse;whiteSpace=wrap;html=1;align=center;" parent="1" vertex="1">
          <mxGeometry x="-660" y="220" width="100" height="40" as="geometry" />
        </mxCell>
        <mxCell id="n1WhY-lI0MyOK2rK_cIN-79" style="edgeStyle=orthogonalEdgeStyle;rounded=0;orthogonalLoop=1;jettySize=auto;html=1;entryX=1;entryY=0.25;entryDx=0;entryDy=0;endArrow=none;startFill=0;" parent="1" source="n1WhY-lI0MyOK2rK_cIN-65" target="n1WhY-lI0MyOK2rK_cIN-61" edge="1">
          <mxGeometry relative="1" as="geometry" />
        </mxCell>
        <mxCell id="n1WhY-lI0MyOK2rK_cIN-65" value="RoomNumber" style="ellipse;whiteSpace=wrap;html=1;align=center;" parent="1" vertex="1">
          <mxGeometry x="-430" y="30" width="100" height="40" as="geometry" />
        </mxCell>
        <mxCell id="n1WhY-lI0MyOK2rK_cIN-75" style="edgeStyle=orthogonalEdgeStyle;rounded=0;orthogonalLoop=1;jettySize=auto;html=1;entryX=0.5;entryY=0;entryDx=0;entryDy=0;endArrow=none;startFill=0;" parent="1" source="n1WhY-lI0MyOK2rK_cIN-66" target="n1WhY-lI0MyOK2rK_cIN-61" edge="1">
          <mxGeometry relative="1" as="geometry" />
        </mxCell>
        <mxCell id="n1WhY-lI0MyOK2rK_cIN-66" value="&lt;u&gt;RoomID&lt;/u&gt;" style="ellipse;whiteSpace=wrap;html=1;align=center;" parent="1" vertex="1">
          <mxGeometry x="-530" y="10" width="100" height="40" as="geometry" />
        </mxCell>
        <mxCell id="n1WhY-lI0MyOK2rK_cIN-74" style="edgeStyle=orthogonalEdgeStyle;rounded=0;orthogonalLoop=1;jettySize=auto;html=1;entryX=0;entryY=0;entryDx=0;entryDy=0;endArrow=none;startFill=0;" parent="1" source="n1WhY-lI0MyOK2rK_cIN-67" target="n1WhY-lI0MyOK2rK_cIN-61" edge="1">
          <mxGeometry relative="1" as="geometry" />
        </mxCell>
        <mxCell id="n1WhY-lI0MyOK2rK_cIN-67" value="RoomType" style="ellipse;whiteSpace=wrap;html=1;align=center;" parent="1" vertex="1">
          <mxGeometry x="-670" y="20" width="100" height="40" as="geometry" />
        </mxCell>
        <mxCell id="n1WhY-lI0MyOK2rK_cIN-73" style="edgeStyle=orthogonalEdgeStyle;rounded=0;orthogonalLoop=1;jettySize=auto;html=1;entryX=0;entryY=0.25;entryDx=0;entryDy=0;endArrow=none;startFill=0;" parent="1" source="n1WhY-lI0MyOK2rK_cIN-68" target="n1WhY-lI0MyOK2rK_cIN-61" edge="1">
          <mxGeometry relative="1" as="geometry" />
        </mxCell>
        <mxCell id="n1WhY-lI0MyOK2rK_cIN-68" value="Status" style="ellipse;whiteSpace=wrap;html=1;align=center;" parent="1" vertex="1">
          <mxGeometry x="-670" y="70" width="100" height="40" as="geometry" />
        </mxCell>
        <mxCell id="n1WhY-lI0MyOK2rK_cIN-72" style="edgeStyle=orthogonalEdgeStyle;rounded=0;orthogonalLoop=1;jettySize=auto;html=1;entryX=0;entryY=0.5;entryDx=0;entryDy=0;endArrow=none;startFill=0;" parent="1" source="n1WhY-lI0MyOK2rK_cIN-69" target="n1WhY-lI0MyOK2rK_cIN-61" edge="1">
          <mxGeometry relative="1" as="geometry" />
        </mxCell>
        <mxCell id="n1WhY-lI0MyOK2rK_cIN-69" value="CurrentPatientID" style="ellipse;whiteSpace=wrap;html=1;align=center;" parent="1" vertex="1">
          <mxGeometry x="-670" y="120" width="100" height="40" as="geometry" />
        </mxCell>
        <mxCell id="n1WhY-lI0MyOK2rK_cIN-71" style="edgeStyle=orthogonalEdgeStyle;rounded=0;orthogonalLoop=1;jettySize=auto;html=1;entryX=-0.01;entryY=0.92;entryDx=0;entryDy=0;entryPerimeter=0;endArrow=none;startFill=0;" parent="1" source="n1WhY-lI0MyOK2rK_cIN-62" target="n1WhY-lI0MyOK2rK_cIN-61" edge="1">
          <mxGeometry relative="1" as="geometry" />
        </mxCell>
        <mxCell id="n1WhY-lI0MyOK2rK_cIN-76" style="edgeStyle=orthogonalEdgeStyle;rounded=0;orthogonalLoop=1;jettySize=auto;html=1;entryX=0.09;entryY=0.98;entryDx=0;entryDy=0;entryPerimeter=0;endArrow=none;startFill=0;" parent="1" source="n1WhY-lI0MyOK2rK_cIN-64" target="n1WhY-lI0MyOK2rK_cIN-61" edge="1">
          <mxGeometry relative="1" as="geometry" />
        </mxCell>
        <mxCell id="n1WhY-lI0MyOK2rK_cIN-80" value="Staff" style="whiteSpace=wrap;html=1;align=center;" parent="1" vertex="1">
          <mxGeometry x="-980" y="-90" width="100" height="100" as="geometry" />
        </mxCell>
        <mxCell id="n1WhY-lI0MyOK2rK_cIN-81" value="PatientID" style="ellipse;whiteSpace=wrap;html=1;align=center;" parent="1" vertex="1">
          <mxGeometry x="-1110" y="-10" width="100" height="40" as="geometry" />
        </mxCell>
        <mxCell id="n1WhY-lI0MyOK2rK_cIN-83" value="ContactNumber" style="ellipse;whiteSpace=wrap;html=1;align=center;" parent="1" vertex="1">
          <mxGeometry x="-1110" y="40" width="100" height="40" as="geometry" />
        </mxCell>
        <mxCell id="n1WhY-lI0MyOK2rK_cIN-84" style="edgeStyle=orthogonalEdgeStyle;rounded=0;orthogonalLoop=1;jettySize=auto;html=1;entryX=1;entryY=0.25;entryDx=0;entryDy=0;endArrow=none;startFill=0;" parent="1" source="n1WhY-lI0MyOK2rK_cIN-85" target="n1WhY-lI0MyOK2rK_cIN-80" edge="1">
          <mxGeometry relative="1" as="geometry" />
        </mxCell>
        <mxCell id="n1WhY-lI0MyOK2rK_cIN-85" value="BloodType" style="ellipse;whiteSpace=wrap;html=1;align=center;" parent="1" vertex="1">
          <mxGeometry x="-880" y="-150" width="100" height="40" as="geometry" />
        </mxCell>
        <mxCell id="n1WhY-lI0MyOK2rK_cIN-86" style="edgeStyle=orthogonalEdgeStyle;rounded=0;orthogonalLoop=1;jettySize=auto;html=1;entryX=0.5;entryY=0;entryDx=0;entryDy=0;endArrow=none;startFill=0;" parent="1" source="n1WhY-lI0MyOK2rK_cIN-87" target="n1WhY-lI0MyOK2rK_cIN-80" edge="1">
          <mxGeometry relative="1" as="geometry" />
        </mxCell>
        <mxCell id="n1WhY-lI0MyOK2rK_cIN-87" value="Address" style="ellipse;whiteSpace=wrap;html=1;align=center;" parent="1" vertex="1">
          <mxGeometry x="-980" y="-170" width="100" height="40" as="geometry" />
        </mxCell>
        <mxCell id="n1WhY-lI0MyOK2rK_cIN-88" style="edgeStyle=orthogonalEdgeStyle;rounded=0;orthogonalLoop=1;jettySize=auto;html=1;entryX=0;entryY=0;entryDx=0;entryDy=0;endArrow=none;startFill=0;" parent="1" source="n1WhY-lI0MyOK2rK_cIN-89" target="n1WhY-lI0MyOK2rK_cIN-80" edge="1">
          <mxGeometry relative="1" as="geometry" />
        </mxCell>
        <mxCell id="n1WhY-lI0MyOK2rK_cIN-89" value="Gender" style="ellipse;whiteSpace=wrap;html=1;align=center;" parent="1" vertex="1">
          <mxGeometry x="-1120" y="-160" width="100" height="40" as="geometry" />
        </mxCell>
        <mxCell id="n1WhY-lI0MyOK2rK_cIN-90" style="edgeStyle=orthogonalEdgeStyle;rounded=0;orthogonalLoop=1;jettySize=auto;html=1;entryX=0;entryY=0.25;entryDx=0;entryDy=0;endArrow=none;startFill=0;" parent="1" source="n1WhY-lI0MyOK2rK_cIN-91" target="n1WhY-lI0MyOK2rK_cIN-80" edge="1">
          <mxGeometry relative="1" as="geometry" />
        </mxCell>
        <mxCell id="n1WhY-lI0MyOK2rK_cIN-91" value="Age" style="ellipse;whiteSpace=wrap;html=1;align=center;" parent="1" vertex="1">
          <mxGeometry x="-1120" y="-110" width="100" height="40" as="geometry" />
        </mxCell>
        <mxCell id="n1WhY-lI0MyOK2rK_cIN-92" style="edgeStyle=orthogonalEdgeStyle;rounded=0;orthogonalLoop=1;jettySize=auto;html=1;entryX=0;entryY=0.5;entryDx=0;entryDy=0;endArrow=none;startFill=0;" parent="1" source="n1WhY-lI0MyOK2rK_cIN-93" target="n1WhY-lI0MyOK2rK_cIN-80" edge="1">
          <mxGeometry relative="1" as="geometry" />
        </mxCell>
        <mxCell id="n1WhY-lI0MyOK2rK_cIN-93" value="Name" style="ellipse;whiteSpace=wrap;html=1;align=center;" parent="1" vertex="1">
          <mxGeometry x="-1120" y="-60" width="100" height="40" as="geometry" />
        </mxCell>
        <mxCell id="n1WhY-lI0MyOK2rK_cIN-94" style="edgeStyle=orthogonalEdgeStyle;rounded=0;orthogonalLoop=1;jettySize=auto;html=1;entryX=-0.01;entryY=0.92;entryDx=0;entryDy=0;entryPerimeter=0;endArrow=none;startFill=0;" parent="1" source="n1WhY-lI0MyOK2rK_cIN-81" target="n1WhY-lI0MyOK2rK_cIN-80" edge="1">
          <mxGeometry relative="1" as="geometry" />
        </mxCell>
        <mxCell id="n1WhY-lI0MyOK2rK_cIN-95" style="edgeStyle=orthogonalEdgeStyle;rounded=0;orthogonalLoop=1;jettySize=auto;html=1;entryX=0.09;entryY=0.98;entryDx=0;entryDy=0;entryPerimeter=0;endArrow=none;startFill=0;" parent="1" source="n1WhY-lI0MyOK2rK_cIN-83" target="n1WhY-lI0MyOK2rK_cIN-80" edge="1">
          <mxGeometry relative="1" as="geometry" />
        </mxCell>
        <mxCell id="n1WhY-lI0MyOK2rK_cIN-114" value="MedicalRecords" style="whiteSpace=wrap;html=1;align=center;" parent="1" vertex="1">
          <mxGeometry x="335" y="40" width="100" height="60" as="geometry" />
        </mxCell>
        <mxCell id="n1WhY-lI0MyOK2rK_cIN-115" style="edgeStyle=orthogonalEdgeStyle;rounded=0;orthogonalLoop=1;jettySize=auto;html=1;exitX=1;exitY=0.5;exitDx=0;exitDy=0;entryX=0;entryY=0.5;entryDx=0;entryDy=0;endArrow=none;startFill=0;" parent="1" source="n1WhY-lI0MyOK2rK_cIN-116" target="n1WhY-lI0MyOK2rK_cIN-114" edge="1">
          <mxGeometry relative="1" as="geometry" />
        </mxCell>
        <mxCell id="n1WhY-lI0MyOK2rK_cIN-116" value="&lt;u&gt;RecordID&lt;/u&gt;" style="ellipse;whiteSpace=wrap;html=1;align=center;" parent="1" vertex="1">
          <mxGeometry x="230" y="60" width="85" height="30" as="geometry" />
        </mxCell>
        <mxCell id="n1WhY-lI0MyOK2rK_cIN-119" style="edgeStyle=orthogonalEdgeStyle;rounded=0;orthogonalLoop=1;jettySize=auto;html=1;exitX=0.5;exitY=1;exitDx=0;exitDy=0;entryX=0;entryY=0.25;entryDx=0;entryDy=0;endArrow=none;startFill=0;" parent="1" source="n1WhY-lI0MyOK2rK_cIN-120" target="n1WhY-lI0MyOK2rK_cIN-114" edge="1">
          <mxGeometry relative="1" as="geometry" />
        </mxCell>
        <mxCell id="n1WhY-lI0MyOK2rK_cIN-120" value="TreatmentNotes" style="ellipse;whiteSpace=wrap;html=1;align=center;" parent="1" vertex="1">
          <mxGeometry x="260" width="110" height="35" as="geometry" />
        </mxCell>
        <mxCell id="n1WhY-lI0MyOK2rK_cIN-121" style="edgeStyle=orthogonalEdgeStyle;rounded=0;orthogonalLoop=1;jettySize=auto;html=1;entryX=0.75;entryY=0;entryDx=0;entryDy=0;endArrow=none;startFill=0;" parent="1" source="n1WhY-lI0MyOK2rK_cIN-122" target="n1WhY-lI0MyOK2rK_cIN-114" edge="1">
          <mxGeometry relative="1" as="geometry">
            <Array as="points">
              <mxPoint x="465" />
              <mxPoint x="410" />
            </Array>
          </mxGeometry>
        </mxCell>
        <mxCell id="n1WhY-lI0MyOK2rK_cIN-122" value="PatientID" style="ellipse;whiteSpace=wrap;html=1;align=center;" parent="1" vertex="1">
          <mxGeometry x="405" width="75" height="30" as="geometry" />
        </mxCell>
        <mxCell id="n1WhY-lI0MyOK2rK_cIN-123" value="VisitDate" style="ellipse;whiteSpace=wrap;html=1;align=center;" parent="1" vertex="1">
          <mxGeometry x="455" y="80" width="90" height="30" as="geometry" />
        </mxCell>
        <mxCell id="n1WhY-lI0MyOK2rK_cIN-124" style="edgeStyle=orthogonalEdgeStyle;rounded=0;orthogonalLoop=1;jettySize=auto;html=1;exitX=0;exitY=0.5;exitDx=0;exitDy=0;entryX=1;entryY=0.5;entryDx=0;entryDy=0;endArrow=none;startFill=0;" parent="1" source="n1WhY-lI0MyOK2rK_cIN-125" target="n1WhY-lI0MyOK2rK_cIN-114" edge="1">
          <mxGeometry relative="1" as="geometry" />
        </mxCell>
        <mxCell id="n1WhY-lI0MyOK2rK_cIN-125" value="DoctorID" style="ellipse;whiteSpace=wrap;html=1;align=center;" parent="1" vertex="1">
          <mxGeometry x="460" y="50" width="80" height="30" as="geometry" />
        </mxCell>
        <mxCell id="n1WhY-lI0MyOK2rK_cIN-128" value="Diagnosis" style="ellipse;whiteSpace=wrap;html=1;align=center;" parent="1" vertex="1">
          <mxGeometry x="440" y="110" width="95" height="40" as="geometry" />
        </mxCell>
        <mxCell id="n1WhY-lI0MyOK2rK_cIN-129" style="edgeStyle=orthogonalEdgeStyle;rounded=0;orthogonalLoop=1;jettySize=auto;html=1;exitX=0;exitY=0.5;exitDx=0;exitDy=0;entryX=0.988;entryY=0.892;entryDx=0;entryDy=0;entryPerimeter=0;endArrow=none;startFill=0;" parent="1" source="n1WhY-lI0MyOK2rK_cIN-123" target="n1WhY-lI0MyOK2rK_cIN-114" edge="1">
          <mxGeometry relative="1" as="geometry" />
        </mxCell>
        <mxCell id="n1WhY-lI0MyOK2rK_cIN-130" style="edgeStyle=orthogonalEdgeStyle;rounded=0;orthogonalLoop=1;jettySize=auto;html=1;exitX=0;exitY=0.5;exitDx=0;exitDy=0;endArrow=none;startFill=0;" parent="1" source="n1WhY-lI0MyOK2rK_cIN-128" edge="1">
          <mxGeometry relative="1" as="geometry">
            <mxPoint x="422" y="100" as="targetPoint" />
          </mxGeometry>
        </mxCell>
        <mxCell id="n1WhY-lI0MyOK2rK_cIN-131" value="TestExamination" style="whiteSpace=wrap;html=1;align=center;" parent="1" vertex="1">
          <mxGeometry x="345" y="220" width="100" height="60" as="geometry" />
        </mxCell>
        <mxCell id="n1WhY-lI0MyOK2rK_cIN-132" style="edgeStyle=orthogonalEdgeStyle;rounded=0;orthogonalLoop=1;jettySize=auto;html=1;exitX=1;exitY=0.5;exitDx=0;exitDy=0;entryX=0;entryY=0.5;entryDx=0;entryDy=0;endArrow=none;startFill=0;" parent="1" source="n1WhY-lI0MyOK2rK_cIN-133" target="n1WhY-lI0MyOK2rK_cIN-131" edge="1">
          <mxGeometry relative="1" as="geometry" />
        </mxCell>
        <mxCell id="n1WhY-lI0MyOK2rK_cIN-133" value="&lt;u&gt;TestID&lt;/u&gt;" style="ellipse;whiteSpace=wrap;html=1;align=center;" parent="1" vertex="1">
          <mxGeometry x="240" y="240" width="85" height="30" as="geometry" />
        </mxCell>
        <mxCell id="n1WhY-lI0MyOK2rK_cIN-134" style="edgeStyle=orthogonalEdgeStyle;rounded=0;orthogonalLoop=1;jettySize=auto;html=1;entryX=0.25;entryY=0;entryDx=0;entryDy=0;endArrow=none;startFill=0;" parent="1" source="n1WhY-lI0MyOK2rK_cIN-135" target="n1WhY-lI0MyOK2rK_cIN-131" edge="1">
          <mxGeometry relative="1" as="geometry">
            <Array as="points">
              <mxPoint x="365" y="180" />
              <mxPoint x="370" y="180" />
            </Array>
          </mxGeometry>
        </mxCell>
        <mxCell id="n1WhY-lI0MyOK2rK_cIN-135" value="PatientID" style="ellipse;whiteSpace=wrap;html=1;align=center;" parent="1" vertex="1">
          <mxGeometry x="340" y="180" width="65" height="20" as="geometry" />
        </mxCell>
        <mxCell id="n1WhY-lI0MyOK2rK_cIN-136" style="edgeStyle=orthogonalEdgeStyle;rounded=0;orthogonalLoop=1;jettySize=auto;html=1;exitX=0.5;exitY=1;exitDx=0;exitDy=0;entryX=0;entryY=0.25;entryDx=0;entryDy=0;endArrow=none;startFill=0;" parent="1" source="n1WhY-lI0MyOK2rK_cIN-137" target="n1WhY-lI0MyOK2rK_cIN-131" edge="1">
          <mxGeometry relative="1" as="geometry" />
        </mxCell>
        <mxCell id="n1WhY-lI0MyOK2rK_cIN-137" value="DoctorID" style="ellipse;whiteSpace=wrap;html=1;align=center;" parent="1" vertex="1">
          <mxGeometry x="270" y="205" width="55" height="10" as="geometry" />
        </mxCell>
        <mxCell id="n1WhY-lI0MyOK2rK_cIN-138" style="edgeStyle=orthogonalEdgeStyle;rounded=0;orthogonalLoop=1;jettySize=auto;html=1;entryX=0.75;entryY=0;entryDx=0;entryDy=0;endArrow=none;startFill=0;" parent="1" source="n1WhY-lI0MyOK2rK_cIN-139" target="n1WhY-lI0MyOK2rK_cIN-131" edge="1">
          <mxGeometry relative="1" as="geometry">
            <Array as="points">
              <mxPoint x="475" y="180" />
              <mxPoint x="420" y="180" />
            </Array>
          </mxGeometry>
        </mxCell>
        <mxCell id="n1WhY-lI0MyOK2rK_cIN-139" value="TestType" style="ellipse;whiteSpace=wrap;html=1;align=center;" parent="1" vertex="1">
          <mxGeometry x="415" y="180" width="75" height="30" as="geometry" />
        </mxCell>
        <mxCell id="n1WhY-lI0MyOK2rK_cIN-140" value="Status" style="ellipse;whiteSpace=wrap;html=1;align=center;" parent="1" vertex="1">
          <mxGeometry x="465" y="260" width="90" height="30" as="geometry" />
        </mxCell>
        <mxCell id="n1WhY-lI0MyOK2rK_cIN-141" style="edgeStyle=orthogonalEdgeStyle;rounded=0;orthogonalLoop=1;jettySize=auto;html=1;exitX=0;exitY=0.5;exitDx=0;exitDy=0;entryX=1;entryY=0.5;entryDx=0;entryDy=0;endArrow=none;startFill=0;" parent="1" source="n1WhY-lI0MyOK2rK_cIN-142" target="n1WhY-lI0MyOK2rK_cIN-131" edge="1">
          <mxGeometry relative="1" as="geometry" />
        </mxCell>
        <mxCell id="n1WhY-lI0MyOK2rK_cIN-142" value="Results" style="ellipse;whiteSpace=wrap;html=1;align=center;" parent="1" vertex="1">
          <mxGeometry x="470" y="230" width="80" height="30" as="geometry" />
        </mxCell>
        <mxCell id="n1WhY-lI0MyOK2rK_cIN-143" style="edgeStyle=orthogonalEdgeStyle;rounded=0;orthogonalLoop=1;jettySize=auto;html=1;exitX=0;exitY=0.5;exitDx=0;exitDy=0;entryX=1;entryY=0;entryDx=0;entryDy=0;endArrow=none;startFill=0;" parent="1" source="n1WhY-lI0MyOK2rK_cIN-144" target="n1WhY-lI0MyOK2rK_cIN-131" edge="1">
          <mxGeometry relative="1" as="geometry" />
        </mxCell>
        <mxCell id="n1WhY-lI0MyOK2rK_cIN-144" value="TestDate" style="ellipse;whiteSpace=wrap;html=1;align=center;" parent="1" vertex="1">
          <mxGeometry x="460" y="210" width="80" height="20" as="geometry" />
        </mxCell>
        <mxCell id="n1WhY-lI0MyOK2rK_cIN-145" value="TechnicianID" style="ellipse;whiteSpace=wrap;html=1;align=center;" parent="1" vertex="1">
          <mxGeometry x="450" y="290" width="95" height="40" as="geometry" />
        </mxCell>
        <mxCell id="n1WhY-lI0MyOK2rK_cIN-146" style="edgeStyle=orthogonalEdgeStyle;rounded=0;orthogonalLoop=1;jettySize=auto;html=1;exitX=0;exitY=0.5;exitDx=0;exitDy=0;entryX=0.988;entryY=0.892;entryDx=0;entryDy=0;entryPerimeter=0;endArrow=none;startFill=0;" parent="1" source="n1WhY-lI0MyOK2rK_cIN-140" target="n1WhY-lI0MyOK2rK_cIN-131" edge="1">
          <mxGeometry relative="1" as="geometry" />
        </mxCell>
        <mxCell id="n1WhY-lI0MyOK2rK_cIN-147" style="edgeStyle=orthogonalEdgeStyle;rounded=0;orthogonalLoop=1;jettySize=auto;html=1;exitX=0;exitY=0.5;exitDx=0;exitDy=0;endArrow=none;startFill=0;" parent="1" source="n1WhY-lI0MyOK2rK_cIN-145" edge="1">
          <mxGeometry relative="1" as="geometry">
            <mxPoint x="432" y="280" as="targetPoint" />
          </mxGeometry>
        </mxCell>
        <mxCell id="n1WhY-lI0MyOK2rK_cIN-148" value="Prescriptions" style="whiteSpace=wrap;html=1;align=center;" parent="1" vertex="1">
          <mxGeometry x="795" y="-240" width="100" height="60" as="geometry" />
        </mxCell>
        <mxCell id="n1WhY-lI0MyOK2rK_cIN-149" style="edgeStyle=orthogonalEdgeStyle;rounded=0;orthogonalLoop=1;jettySize=auto;html=1;exitX=1;exitY=0.5;exitDx=0;exitDy=0;entryX=0;entryY=0.5;entryDx=0;entryDy=0;endArrow=none;startFill=0;" parent="1" source="n1WhY-lI0MyOK2rK_cIN-150" target="n1WhY-lI0MyOK2rK_cIN-148" edge="1">
          <mxGeometry relative="1" as="geometry" />
        </mxCell>
        <mxCell id="n1WhY-lI0MyOK2rK_cIN-150" value="&lt;u&gt;PrescriptionID&lt;/u&gt;" style="ellipse;whiteSpace=wrap;html=1;align=center;" parent="1" vertex="1">
          <mxGeometry x="690" y="-220" width="85" height="30" as="geometry" />
        </mxCell>
        <mxCell id="n1WhY-lI0MyOK2rK_cIN-153" style="edgeStyle=orthogonalEdgeStyle;rounded=0;orthogonalLoop=1;jettySize=auto;html=1;exitX=0.5;exitY=1;exitDx=0;exitDy=0;entryX=0;entryY=0.25;entryDx=0;entryDy=0;endArrow=none;startFill=0;" parent="1" source="n1WhY-lI0MyOK2rK_cIN-154" target="n1WhY-lI0MyOK2rK_cIN-148" edge="1">
          <mxGeometry relative="1" as="geometry" />
        </mxCell>
        <mxCell id="n1WhY-lI0MyOK2rK_cIN-154" value="Status" style="ellipse;whiteSpace=wrap;html=1;align=center;" parent="1" vertex="1">
          <mxGeometry x="720" y="-280" width="55" height="35" as="geometry" />
        </mxCell>
        <mxCell id="n1WhY-lI0MyOK2rK_cIN-155" style="edgeStyle=orthogonalEdgeStyle;rounded=0;orthogonalLoop=1;jettySize=auto;html=1;entryX=0.75;entryY=0;entryDx=0;entryDy=0;endArrow=none;startFill=0;" parent="1" source="n1WhY-lI0MyOK2rK_cIN-156" target="n1WhY-lI0MyOK2rK_cIN-148" edge="1">
          <mxGeometry relative="1" as="geometry">
            <Array as="points">
              <mxPoint x="925" y="-280" />
              <mxPoint x="870" y="-280" />
            </Array>
          </mxGeometry>
        </mxCell>
        <mxCell id="n1WhY-lI0MyOK2rK_cIN-156" value="PatientID" style="ellipse;whiteSpace=wrap;html=1;align=center;" parent="1" vertex="1">
          <mxGeometry x="865" y="-280" width="75" height="30" as="geometry" />
        </mxCell>
        <mxCell id="n1WhY-lI0MyOK2rK_cIN-157" value="IssueDate" style="ellipse;whiteSpace=wrap;html=1;align=center;" parent="1" vertex="1">
          <mxGeometry x="915" y="-200" width="90" height="30" as="geometry" />
        </mxCell>
        <mxCell id="n1WhY-lI0MyOK2rK_cIN-158" style="edgeStyle=orthogonalEdgeStyle;rounded=0;orthogonalLoop=1;jettySize=auto;html=1;exitX=0;exitY=0.5;exitDx=0;exitDy=0;entryX=1;entryY=0.5;entryDx=0;entryDy=0;endArrow=none;startFill=0;" parent="1" source="n1WhY-lI0MyOK2rK_cIN-159" target="n1WhY-lI0MyOK2rK_cIN-148" edge="1">
          <mxGeometry relative="1" as="geometry" />
        </mxCell>
        <mxCell id="n1WhY-lI0MyOK2rK_cIN-159" value="DoctorID" style="ellipse;whiteSpace=wrap;html=1;align=center;" parent="1" vertex="1">
          <mxGeometry x="920" y="-230" width="80" height="30" as="geometry" />
        </mxCell>
        <mxCell id="n1WhY-lI0MyOK2rK_cIN-160" style="edgeStyle=orthogonalEdgeStyle;rounded=0;orthogonalLoop=1;jettySize=auto;html=1;exitX=0;exitY=0.5;exitDx=0;exitDy=0;entryX=1;entryY=0;entryDx=0;entryDy=0;endArrow=none;startFill=0;" parent="1" source="n1WhY-lI0MyOK2rK_cIN-161" target="n1WhY-lI0MyOK2rK_cIN-148" edge="1">
          <mxGeometry relative="1" as="geometry" />
        </mxCell>
        <mxCell id="n1WhY-lI0MyOK2rK_cIN-161" value="Instructions" style="ellipse;whiteSpace=wrap;html=1;align=center;" parent="1" vertex="1">
          <mxGeometry x="910" y="-250" width="80" height="20" as="geometry" />
        </mxCell>
        <mxCell id="n1WhY-lI0MyOK2rK_cIN-162" value="ExpiryDate" style="ellipse;whiteSpace=wrap;html=1;align=center;" parent="1" vertex="1">
          <mxGeometry x="900" y="-170" width="95" height="40" as="geometry" />
        </mxCell>
        <mxCell id="n1WhY-lI0MyOK2rK_cIN-163" style="edgeStyle=orthogonalEdgeStyle;rounded=0;orthogonalLoop=1;jettySize=auto;html=1;exitX=0;exitY=0.5;exitDx=0;exitDy=0;entryX=0.988;entryY=0.892;entryDx=0;entryDy=0;entryPerimeter=0;endArrow=none;startFill=0;" parent="1" source="n1WhY-lI0MyOK2rK_cIN-157" target="n1WhY-lI0MyOK2rK_cIN-148" edge="1">
          <mxGeometry relative="1" as="geometry" />
        </mxCell>
        <mxCell id="n1WhY-lI0MyOK2rK_cIN-164" style="edgeStyle=orthogonalEdgeStyle;rounded=0;orthogonalLoop=1;jettySize=auto;html=1;exitX=0;exitY=0.5;exitDx=0;exitDy=0;endArrow=none;startFill=0;" parent="1" source="n1WhY-lI0MyOK2rK_cIN-162" edge="1">
          <mxGeometry relative="1" as="geometry">
            <mxPoint x="882" y="-180" as="targetPoint" />
          </mxGeometry>
        </mxCell>
        <mxCell id="n1WhY-lI0MyOK2rK_cIN-165" value="Patients" style="whiteSpace=wrap;html=1;align=center;" parent="1" vertex="1">
          <mxGeometry x="-430" y="-520" width="100" height="100" as="geometry" />
        </mxCell>
        <mxCell id="n1WhY-lI0MyOK2rK_cIN-166" value="PatientID" style="ellipse;whiteSpace=wrap;html=1;align=center;" parent="1" vertex="1">
          <mxGeometry x="-560" y="-440" width="100" height="40" as="geometry" />
        </mxCell>
        <mxCell id="n1WhY-lI0MyOK2rK_cIN-167" value="AttriRegistrationDatebute" style="ellipse;whiteSpace=wrap;html=1;align=center;" parent="1" vertex="1">
          <mxGeometry x="-470" y="-360" width="150" height="40" as="geometry" />
        </mxCell>
        <mxCell id="n1WhY-lI0MyOK2rK_cIN-168" value="ContactNumber" style="ellipse;whiteSpace=wrap;html=1;align=center;" parent="1" vertex="1">
          <mxGeometry x="-560" y="-390" width="100" height="40" as="geometry" />
        </mxCell>
        <mxCell id="n1WhY-lI0MyOK2rK_cIN-169" style="edgeStyle=orthogonalEdgeStyle;rounded=0;orthogonalLoop=1;jettySize=auto;html=1;entryX=1;entryY=0.25;entryDx=0;entryDy=0;endArrow=none;startFill=0;" parent="1" source="n1WhY-lI0MyOK2rK_cIN-170" target="n1WhY-lI0MyOK2rK_cIN-165" edge="1">
          <mxGeometry relative="1" as="geometry" />
        </mxCell>
        <mxCell id="n1WhY-lI0MyOK2rK_cIN-170" value="BloodType" style="ellipse;whiteSpace=wrap;html=1;align=center;" parent="1" vertex="1">
          <mxGeometry x="-330" y="-580" width="100" height="40" as="geometry" />
        </mxCell>
        <mxCell id="n1WhY-lI0MyOK2rK_cIN-171" style="edgeStyle=orthogonalEdgeStyle;rounded=0;orthogonalLoop=1;jettySize=auto;html=1;entryX=0.5;entryY=0;entryDx=0;entryDy=0;endArrow=none;startFill=0;" parent="1" source="n1WhY-lI0MyOK2rK_cIN-172" target="n1WhY-lI0MyOK2rK_cIN-165" edge="1">
          <mxGeometry relative="1" as="geometry" />
        </mxCell>
        <mxCell id="n1WhY-lI0MyOK2rK_cIN-172" value="Address" style="ellipse;whiteSpace=wrap;html=1;align=center;" parent="1" vertex="1">
          <mxGeometry x="-430" y="-600" width="100" height="40" as="geometry" />
        </mxCell>
        <mxCell id="n1WhY-lI0MyOK2rK_cIN-173" style="edgeStyle=orthogonalEdgeStyle;rounded=0;orthogonalLoop=1;jettySize=auto;html=1;entryX=0;entryY=0;entryDx=0;entryDy=0;endArrow=none;startFill=0;" parent="1" source="n1WhY-lI0MyOK2rK_cIN-174" target="n1WhY-lI0MyOK2rK_cIN-165" edge="1">
          <mxGeometry relative="1" as="geometry" />
        </mxCell>
        <mxCell id="n1WhY-lI0MyOK2rK_cIN-174" value="Gender" style="ellipse;whiteSpace=wrap;html=1;align=center;" parent="1" vertex="1">
          <mxGeometry x="-570" y="-590" width="100" height="40" as="geometry" />
        </mxCell>
        <mxCell id="n1WhY-lI0MyOK2rK_cIN-175" style="edgeStyle=orthogonalEdgeStyle;rounded=0;orthogonalLoop=1;jettySize=auto;html=1;entryX=0;entryY=0.25;entryDx=0;entryDy=0;endArrow=none;startFill=0;" parent="1" source="n1WhY-lI0MyOK2rK_cIN-176" target="n1WhY-lI0MyOK2rK_cIN-165" edge="1">
          <mxGeometry relative="1" as="geometry" />
        </mxCell>
        <mxCell id="n1WhY-lI0MyOK2rK_cIN-176" value="Age" style="ellipse;whiteSpace=wrap;html=1;align=center;" parent="1" vertex="1">
          <mxGeometry x="-570" y="-540" width="100" height="40" as="geometry" />
        </mxCell>
        <mxCell id="n1WhY-lI0MyOK2rK_cIN-177" style="edgeStyle=orthogonalEdgeStyle;rounded=0;orthogonalLoop=1;jettySize=auto;html=1;entryX=0;entryY=0.5;entryDx=0;entryDy=0;endArrow=none;startFill=0;" parent="1" source="n1WhY-lI0MyOK2rK_cIN-178" target="n1WhY-lI0MyOK2rK_cIN-165" edge="1">
          <mxGeometry relative="1" as="geometry" />
        </mxCell>
        <mxCell id="n1WhY-lI0MyOK2rK_cIN-178" value="Name" style="ellipse;whiteSpace=wrap;html=1;align=center;" parent="1" vertex="1">
          <mxGeometry x="-570" y="-490" width="100" height="40" as="geometry" />
        </mxCell>
        <mxCell id="n1WhY-lI0MyOK2rK_cIN-179" style="edgeStyle=orthogonalEdgeStyle;rounded=0;orthogonalLoop=1;jettySize=auto;html=1;entryX=-0.01;entryY=0.92;entryDx=0;entryDy=0;entryPerimeter=0;endArrow=none;startFill=0;" parent="1" source="n1WhY-lI0MyOK2rK_cIN-166" target="n1WhY-lI0MyOK2rK_cIN-165" edge="1">
          <mxGeometry relative="1" as="geometry" />
        </mxCell>
        <mxCell id="n1WhY-lI0MyOK2rK_cIN-180" style="edgeStyle=orthogonalEdgeStyle;rounded=0;orthogonalLoop=1;jettySize=auto;html=1;entryX=0.09;entryY=0.98;entryDx=0;entryDy=0;entryPerimeter=0;endArrow=none;startFill=0;" parent="1" source="n1WhY-lI0MyOK2rK_cIN-168" target="n1WhY-lI0MyOK2rK_cIN-165" edge="1">
          <mxGeometry relative="1" as="geometry" />
        </mxCell>
        <mxCell id="n1WhY-lI0MyOK2rK_cIN-181" style="edgeStyle=orthogonalEdgeStyle;rounded=0;orthogonalLoop=1;jettySize=auto;html=1;entryX=0.32;entryY=1.03;entryDx=0;entryDy=0;entryPerimeter=0;endArrow=none;startFill=0;" parent="1" source="n1WhY-lI0MyOK2rK_cIN-167" target="n1WhY-lI0MyOK2rK_cIN-165" edge="1">
          <mxGeometry relative="1" as="geometry" />
        </mxCell>
        <mxCell id="n1WhY-lI0MyOK2rK_cIN-182" value="Payments" style="whiteSpace=wrap;html=1;align=center;" parent="1" vertex="1">
          <mxGeometry x="-1080" y="410" width="100" height="100" as="geometry" />
        </mxCell>
        <mxCell id="n1WhY-lI0MyOK2rK_cIN-183" value="PaymentStatus" style="ellipse;whiteSpace=wrap;html=1;align=center;" parent="1" vertex="1">
          <mxGeometry x="-1210" y="490" width="100" height="40" as="geometry" />
        </mxCell>
        <mxCell id="n1WhY-lI0MyOK2rK_cIN-184" value="BillingStaffID" style="ellipse;whiteSpace=wrap;html=1;align=center;" parent="1" vertex="1">
          <mxGeometry x="-1120" y="570" width="150" height="40" as="geometry" />
        </mxCell>
        <mxCell id="n1WhY-lI0MyOK2rK_cIN-185" value="InvoiceNumber" style="ellipse;whiteSpace=wrap;html=1;align=center;" parent="1" vertex="1">
          <mxGeometry x="-1210" y="540" width="100" height="40" as="geometry" />
        </mxCell>
        <mxCell id="n1WhY-lI0MyOK2rK_cIN-186" style="edgeStyle=orthogonalEdgeStyle;rounded=0;orthogonalLoop=1;jettySize=auto;html=1;entryX=1;entryY=0.25;entryDx=0;entryDy=0;endArrow=none;startFill=0;" parent="1" source="n1WhY-lI0MyOK2rK_cIN-187" target="n1WhY-lI0MyOK2rK_cIN-182" edge="1">
          <mxGeometry relative="1" as="geometry" />
        </mxCell>
        <mxCell id="n1WhY-lI0MyOK2rK_cIN-187" value="PatientID" style="ellipse;whiteSpace=wrap;html=1;align=center;" parent="1" vertex="1">
          <mxGeometry x="-980" y="350" width="100" height="40" as="geometry" />
        </mxCell>
        <mxCell id="n1WhY-lI0MyOK2rK_cIN-188" style="edgeStyle=orthogonalEdgeStyle;rounded=0;orthogonalLoop=1;jettySize=auto;html=1;entryX=0.5;entryY=0;entryDx=0;entryDy=0;endArrow=none;startFill=0;" parent="1" source="n1WhY-lI0MyOK2rK_cIN-189" target="n1WhY-lI0MyOK2rK_cIN-182" edge="1">
          <mxGeometry relative="1" as="geometry" />
        </mxCell>
        <mxCell id="n1WhY-lI0MyOK2rK_cIN-189" value="&lt;u&gt;PaymentID&lt;/u&gt;" style="ellipse;whiteSpace=wrap;html=1;align=center;" parent="1" vertex="1">
          <mxGeometry x="-1080" y="330" width="100" height="40" as="geometry" />
        </mxCell>
        <mxCell id="n1WhY-lI0MyOK2rK_cIN-190" style="edgeStyle=orthogonalEdgeStyle;rounded=0;orthogonalLoop=1;jettySize=auto;html=1;entryX=0;entryY=0;entryDx=0;entryDy=0;endArrow=none;startFill=0;" parent="1" source="n1WhY-lI0MyOK2rK_cIN-191" target="n1WhY-lI0MyOK2rK_cIN-182" edge="1">
          <mxGeometry relative="1" as="geometry" />
        </mxCell>
        <mxCell id="n1WhY-lI0MyOK2rK_cIN-191" value="Amount" style="ellipse;whiteSpace=wrap;html=1;align=center;" parent="1" vertex="1">
          <mxGeometry x="-1220" y="340" width="100" height="40" as="geometry" />
        </mxCell>
        <mxCell id="n1WhY-lI0MyOK2rK_cIN-192" style="edgeStyle=orthogonalEdgeStyle;rounded=0;orthogonalLoop=1;jettySize=auto;html=1;entryX=0;entryY=0.25;entryDx=0;entryDy=0;endArrow=none;startFill=0;" parent="1" source="n1WhY-lI0MyOK2rK_cIN-193" target="n1WhY-lI0MyOK2rK_cIN-182" edge="1">
          <mxGeometry relative="1" as="geometry" />
        </mxCell>
        <mxCell id="n1WhY-lI0MyOK2rK_cIN-193" value="PaymentDate" style="ellipse;whiteSpace=wrap;html=1;align=center;" parent="1" vertex="1">
          <mxGeometry x="-1220" y="390" width="100" height="40" as="geometry" />
        </mxCell>
        <mxCell id="n1WhY-lI0MyOK2rK_cIN-194" style="edgeStyle=orthogonalEdgeStyle;rounded=0;orthogonalLoop=1;jettySize=auto;html=1;entryX=0;entryY=0.5;entryDx=0;entryDy=0;endArrow=none;startFill=0;" parent="1" source="n1WhY-lI0MyOK2rK_cIN-195" target="n1WhY-lI0MyOK2rK_cIN-182" edge="1">
          <mxGeometry relative="1" as="geometry" />
        </mxCell>
        <mxCell id="n1WhY-lI0MyOK2rK_cIN-195" value="PaymentMethod" style="ellipse;whiteSpace=wrap;html=1;align=center;" parent="1" vertex="1">
          <mxGeometry x="-1220" y="440" width="100" height="40" as="geometry" />
        </mxCell>
        <mxCell id="n1WhY-lI0MyOK2rK_cIN-196" style="edgeStyle=orthogonalEdgeStyle;rounded=0;orthogonalLoop=1;jettySize=auto;html=1;entryX=-0.01;entryY=0.92;entryDx=0;entryDy=0;entryPerimeter=0;endArrow=none;startFill=0;" parent="1" source="n1WhY-lI0MyOK2rK_cIN-183" target="n1WhY-lI0MyOK2rK_cIN-182" edge="1">
          <mxGeometry relative="1" as="geometry" />
        </mxCell>
        <mxCell id="n1WhY-lI0MyOK2rK_cIN-197" style="edgeStyle=orthogonalEdgeStyle;rounded=0;orthogonalLoop=1;jettySize=auto;html=1;entryX=0.09;entryY=0.98;entryDx=0;entryDy=0;entryPerimeter=0;endArrow=none;startFill=0;" parent="1" source="n1WhY-lI0MyOK2rK_cIN-185" target="n1WhY-lI0MyOK2rK_cIN-182" edge="1">
          <mxGeometry relative="1" as="geometry" />
        </mxCell>
        <mxCell id="n1WhY-lI0MyOK2rK_cIN-198" style="edgeStyle=orthogonalEdgeStyle;rounded=0;orthogonalLoop=1;jettySize=auto;html=1;entryX=0.32;entryY=1.03;entryDx=0;entryDy=0;entryPerimeter=0;endArrow=none;startFill=0;" parent="1" source="n1WhY-lI0MyOK2rK_cIN-184" target="n1WhY-lI0MyOK2rK_cIN-182" edge="1">
          <mxGeometry relative="1" as="geometry" />
        </mxCell>
        <mxCell id="n1WhY-lI0MyOK2rK_cIN-199" value="Appointment" style="whiteSpace=wrap;html=1;align=center;" parent="1" vertex="1">
          <mxGeometry x="-15" y="-470" width="100" height="60" as="geometry" />
        </mxCell>
        <mxCell id="n1WhY-lI0MyOK2rK_cIN-200" style="edgeStyle=orthogonalEdgeStyle;rounded=0;orthogonalLoop=1;jettySize=auto;html=1;exitX=1;exitY=0.5;exitDx=0;exitDy=0;entryX=0;entryY=0.5;entryDx=0;entryDy=0;endArrow=none;startFill=0;" parent="1" source="n1WhY-lI0MyOK2rK_cIN-201" target="n1WhY-lI0MyOK2rK_cIN-199" edge="1">
          <mxGeometry relative="1" as="geometry" />
        </mxCell>
        <mxCell id="n1WhY-lI0MyOK2rK_cIN-201" value="ReasonForVisit" style="ellipse;whiteSpace=wrap;html=1;align=center;" parent="1" vertex="1">
          <mxGeometry x="-120" y="-450" width="85" height="30" as="geometry" />
        </mxCell>
        <mxCell id="n1WhY-lI0MyOK2rK_cIN-202" style="edgeStyle=orthogonalEdgeStyle;rounded=0;orthogonalLoop=1;jettySize=auto;html=1;entryX=0.25;entryY=0;entryDx=0;entryDy=0;endArrow=none;startFill=0;" parent="1" source="n1WhY-lI0MyOK2rK_cIN-203" target="n1WhY-lI0MyOK2rK_cIN-199" edge="1">
          <mxGeometry relative="1" as="geometry">
            <Array as="points">
              <mxPoint x="5" y="-510" />
              <mxPoint x="10" y="-510" />
            </Array>
          </mxGeometry>
        </mxCell>
        <mxCell id="n1WhY-lI0MyOK2rK_cIN-203" value="&lt;u&gt;AppointmentID&lt;/u&gt;" style="ellipse;whiteSpace=wrap;html=1;align=center;" parent="1" vertex="1">
          <mxGeometry x="-50" y="-510" width="95" height="20" as="geometry" />
        </mxCell>
        <mxCell id="n1WhY-lI0MyOK2rK_cIN-206" style="edgeStyle=orthogonalEdgeStyle;rounded=0;orthogonalLoop=1;jettySize=auto;html=1;entryX=0.75;entryY=0;entryDx=0;entryDy=0;endArrow=none;startFill=0;" parent="1" source="n1WhY-lI0MyOK2rK_cIN-207" target="n1WhY-lI0MyOK2rK_cIN-199" edge="1">
          <mxGeometry relative="1" as="geometry">
            <Array as="points">
              <mxPoint x="115" y="-510" />
              <mxPoint x="60" y="-510" />
            </Array>
          </mxGeometry>
        </mxCell>
        <mxCell id="n1WhY-lI0MyOK2rK_cIN-207" value="PatientID" style="ellipse;whiteSpace=wrap;html=1;align=center;" parent="1" vertex="1">
          <mxGeometry x="55" y="-510" width="75" height="30" as="geometry" />
        </mxCell>
        <mxCell id="n1WhY-lI0MyOK2rK_cIN-208" value="AppointmentDateTime" style="ellipse;whiteSpace=wrap;html=1;align=center;" parent="1" vertex="1">
          <mxGeometry x="105" y="-430" width="125" height="30" as="geometry" />
        </mxCell>
        <mxCell id="n1WhY-lI0MyOK2rK_cIN-209" style="edgeStyle=orthogonalEdgeStyle;rounded=0;orthogonalLoop=1;jettySize=auto;html=1;exitX=0;exitY=0.5;exitDx=0;exitDy=0;entryX=1;entryY=0.5;entryDx=0;entryDy=0;endArrow=none;startFill=0;" parent="1" source="n1WhY-lI0MyOK2rK_cIN-210" target="n1WhY-lI0MyOK2rK_cIN-199" edge="1">
          <mxGeometry relative="1" as="geometry" />
        </mxCell>
        <mxCell id="n1WhY-lI0MyOK2rK_cIN-210" value="DoctorID" style="ellipse;whiteSpace=wrap;html=1;align=center;" parent="1" vertex="1">
          <mxGeometry x="110" y="-460" width="80" height="30" as="geometry" />
        </mxCell>
        <mxCell id="n1WhY-lI0MyOK2rK_cIN-213" value="Status" style="ellipse;whiteSpace=wrap;html=1;align=center;" parent="1" vertex="1">
          <mxGeometry x="90" y="-400" width="95" height="40" as="geometry" />
        </mxCell>
        <mxCell id="n1WhY-lI0MyOK2rK_cIN-214" style="edgeStyle=orthogonalEdgeStyle;rounded=0;orthogonalLoop=1;jettySize=auto;html=1;exitX=0;exitY=0.5;exitDx=0;exitDy=0;entryX=0.988;entryY=0.892;entryDx=0;entryDy=0;entryPerimeter=0;endArrow=none;startFill=0;" parent="1" source="n1WhY-lI0MyOK2rK_cIN-208" target="n1WhY-lI0MyOK2rK_cIN-199" edge="1">
          <mxGeometry relative="1" as="geometry" />
        </mxCell>
        <mxCell id="n1WhY-lI0MyOK2rK_cIN-215" style="edgeStyle=orthogonalEdgeStyle;rounded=0;orthogonalLoop=1;jettySize=auto;html=1;exitX=0;exitY=0.5;exitDx=0;exitDy=0;endArrow=none;startFill=0;" parent="1" source="n1WhY-lI0MyOK2rK_cIN-213" edge="1">
          <mxGeometry relative="1" as="geometry">
            <mxPoint x="72" y="-410" as="targetPoint" />
          </mxGeometry>
        </mxCell>
        <mxCell id="n1WhY-lI0MyOK2rK_cIN-216" value="PharmacyInventary" style="whiteSpace=wrap;html=1;align=center;" parent="1" vertex="1">
          <mxGeometry x="-70" y="325" width="120" height="60" as="geometry" />
        </mxCell>
        <mxCell id="n1WhY-lI0MyOK2rK_cIN-217" style="edgeStyle=orthogonalEdgeStyle;rounded=0;orthogonalLoop=1;jettySize=auto;html=1;exitX=1;exitY=0.5;exitDx=0;exitDy=0;entryX=0;entryY=0.5;entryDx=0;entryDy=0;endArrow=none;startFill=0;" parent="1" source="n1WhY-lI0MyOK2rK_cIN-218" target="n1WhY-lI0MyOK2rK_cIN-216" edge="1">
          <mxGeometry relative="1" as="geometry" />
        </mxCell>
        <mxCell id="n1WhY-lI0MyOK2rK_cIN-218" value="Manufacturer" style="ellipse;whiteSpace=wrap;html=1;align=center;" parent="1" vertex="1">
          <mxGeometry x="-175" y="345" width="85" height="30" as="geometry" />
        </mxCell>
        <mxCell id="n1WhY-lI0MyOK2rK_cIN-219" style="edgeStyle=orthogonalEdgeStyle;rounded=0;orthogonalLoop=1;jettySize=auto;html=1;entryX=0.25;entryY=0;entryDx=0;entryDy=0;endArrow=none;startFill=0;" parent="1" source="n1WhY-lI0MyOK2rK_cIN-220" target="n1WhY-lI0MyOK2rK_cIN-216" edge="1">
          <mxGeometry relative="1" as="geometry">
            <Array as="points">
              <mxPoint x="-50" y="285" />
              <mxPoint x="-45" y="285" />
            </Array>
          </mxGeometry>
        </mxCell>
        <mxCell id="n1WhY-lI0MyOK2rK_cIN-220" value="&lt;u&gt;DrugID&lt;/u&gt;" style="ellipse;whiteSpace=wrap;html=1;align=center;" parent="1" vertex="1">
          <mxGeometry x="-75" y="285" width="65" height="20" as="geometry" />
        </mxCell>
        <mxCell id="n1WhY-lI0MyOK2rK_cIN-221" style="edgeStyle=orthogonalEdgeStyle;rounded=0;orthogonalLoop=1;jettySize=auto;html=1;exitX=0.5;exitY=1;exitDx=0;exitDy=0;entryX=0;entryY=0.25;entryDx=0;entryDy=0;endArrow=none;startFill=0;" parent="1" source="n1WhY-lI0MyOK2rK_cIN-222" target="n1WhY-lI0MyOK2rK_cIN-216" edge="1">
          <mxGeometry relative="1" as="geometry" />
        </mxCell>
        <mxCell id="n1WhY-lI0MyOK2rK_cIN-222" value="Name" style="ellipse;whiteSpace=wrap;html=1;align=center;" parent="1" vertex="1">
          <mxGeometry x="-145" y="310" width="55" height="10" as="geometry" />
        </mxCell>
        <mxCell id="n1WhY-lI0MyOK2rK_cIN-223" style="edgeStyle=orthogonalEdgeStyle;rounded=0;orthogonalLoop=1;jettySize=auto;html=1;entryX=0.75;entryY=0;entryDx=0;entryDy=0;endArrow=none;startFill=0;" parent="1" source="n1WhY-lI0MyOK2rK_cIN-224" target="n1WhY-lI0MyOK2rK_cIN-216" edge="1">
          <mxGeometry relative="1" as="geometry">
            <Array as="points">
              <mxPoint x="60" y="285" />
              <mxPoint x="5" y="285" />
            </Array>
          </mxGeometry>
        </mxCell>
        <mxCell id="n1WhY-lI0MyOK2rK_cIN-224" value="Category" style="ellipse;whiteSpace=wrap;html=1;align=center;" parent="1" vertex="1">
          <mxGeometry y="285" width="75" height="30" as="geometry" />
        </mxCell>
        <mxCell id="n1WhY-lI0MyOK2rK_cIN-225" value="StockQuantity" style="ellipse;whiteSpace=wrap;html=1;align=center;" parent="1" vertex="1">
          <mxGeometry x="70" y="385" width="90" height="30" as="geometry" />
        </mxCell>
        <mxCell id="n1WhY-lI0MyOK2rK_cIN-226" style="edgeStyle=orthogonalEdgeStyle;rounded=0;orthogonalLoop=1;jettySize=auto;html=1;exitX=0;exitY=0.5;exitDx=0;exitDy=0;entryX=1;entryY=0.5;entryDx=0;entryDy=0;endArrow=none;startFill=0;" parent="1" source="n1WhY-lI0MyOK2rK_cIN-227" target="n1WhY-lI0MyOK2rK_cIN-216" edge="1">
          <mxGeometry relative="1" as="geometry" />
        </mxCell>
        <mxCell id="n1WhY-lI0MyOK2rK_cIN-227" value="PricePerUnit" style="ellipse;whiteSpace=wrap;html=1;align=center;" parent="1" vertex="1">
          <mxGeometry x="140" y="340" width="80" height="30" as="geometry" />
        </mxCell>
        <mxCell id="n1WhY-lI0MyOK2rK_cIN-228" style="edgeStyle=orthogonalEdgeStyle;rounded=0;orthogonalLoop=1;jettySize=auto;html=1;exitX=0;exitY=0.5;exitDx=0;exitDy=0;entryX=1;entryY=0;entryDx=0;entryDy=0;endArrow=none;startFill=0;" parent="1" source="n1WhY-lI0MyOK2rK_cIN-229" target="n1WhY-lI0MyOK2rK_cIN-216" edge="1">
          <mxGeometry relative="1" as="geometry" />
        </mxCell>
        <mxCell id="n1WhY-lI0MyOK2rK_cIN-229" value="ExpiryDate" style="ellipse;whiteSpace=wrap;html=1;align=center;" parent="1" vertex="1">
          <mxGeometry x="45" y="315" width="75" height="20" as="geometry" />
        </mxCell>
        <mxCell id="n1WhY-lI0MyOK2rK_cIN-231" style="edgeStyle=orthogonalEdgeStyle;rounded=0;orthogonalLoop=1;jettySize=auto;html=1;exitX=0;exitY=0.5;exitDx=0;exitDy=0;entryX=0.988;entryY=0.892;entryDx=0;entryDy=0;entryPerimeter=0;endArrow=none;startFill=0;" parent="1" source="n1WhY-lI0MyOK2rK_cIN-225" target="n1WhY-lI0MyOK2rK_cIN-216" edge="1">
          <mxGeometry relative="1" as="geometry" />
        </mxCell>
        <mxCell id="n1WhY-lI0MyOK2rK_cIN-280" style="edgeStyle=orthogonalEdgeStyle;rounded=0;orthogonalLoop=1;jettySize=auto;html=1;entryX=0.25;entryY=1;entryDx=0;entryDy=0;endArrow=ERoneToMany;endFill=0;" parent="1" source="n1WhY-lI0MyOK2rK_cIN-250" target="n1WhY-lI0MyOK2rK_cIN-40" edge="1">
          <mxGeometry relative="1" as="geometry" />
        </mxCell>
        <mxCell id="n1WhY-lI0MyOK2rK_cIN-250" value="Relationship" style="shape=rhombus;perimeter=rhombusPerimeter;whiteSpace=wrap;html=1;align=center;" parent="1" vertex="1">
          <mxGeometry x="-120" y="-140" width="120" height="60" as="geometry" />
        </mxCell>
        <mxCell id="n1WhY-lI0MyOK2rK_cIN-251" style="edgeStyle=orthogonalEdgeStyle;rounded=0;orthogonalLoop=1;jettySize=auto;html=1;exitX=1;exitY=0.75;exitDx=0;exitDy=0;entryX=0;entryY=0.5;entryDx=0;entryDy=0;endArrow=ERmandOne;endFill=0;startFill=0;startArrow=ERmany;" parent="1" source="n1WhY-lI0MyOK2rK_cIN-1" target="n1WhY-lI0MyOK2rK_cIN-250" edge="1">
          <mxGeometry relative="1" as="geometry" />
        </mxCell>
        <mxCell id="n1WhY-lI0MyOK2rK_cIN-266" style="edgeStyle=orthogonalEdgeStyle;rounded=0;orthogonalLoop=1;jettySize=auto;html=1;entryX=0;entryY=1;entryDx=0;entryDy=0;endArrow=ERoneToMany;endFill=0;" parent="1" source="n1WhY-lI0MyOK2rK_cIN-254" target="n1WhY-lI0MyOK2rK_cIN-114" edge="1">
          <mxGeometry relative="1" as="geometry">
            <mxPoint x="180" y="180" as="targetPoint" />
            <Array as="points">
              <mxPoint x="170" y="130" />
              <mxPoint x="335" y="130" />
            </Array>
          </mxGeometry>
        </mxCell>
        <mxCell id="n1WhY-lI0MyOK2rK_cIN-282" style="edgeStyle=orthogonalEdgeStyle;rounded=0;orthogonalLoop=1;jettySize=auto;html=1;endArrow=ERmandOne;endFill=0;" parent="1" source="n1WhY-lI0MyOK2rK_cIN-254" edge="1">
          <mxGeometry relative="1" as="geometry">
            <mxPoint x="410" y="-310" as="targetPoint" />
          </mxGeometry>
        </mxCell>
        <mxCell id="n1WhY-lI0MyOK2rK_cIN-254" value="Stores" style="shape=rhombus;perimeter=rhombusPerimeter;whiteSpace=wrap;html=1;align=center;" parent="1" vertex="1">
          <mxGeometry x="110" y="-90" width="120" height="60" as="geometry" />
        </mxCell>
        <mxCell id="n1WhY-lI0MyOK2rK_cIN-260" style="edgeStyle=orthogonalEdgeStyle;rounded=0;orthogonalLoop=1;jettySize=auto;html=1;exitX=1;exitY=0.5;exitDx=0;exitDy=0;entryX=1;entryY=0.75;entryDx=0;entryDy=0;endArrow=ERoneToMany;endFill=0;" parent="1" source="n1WhY-lI0MyOK2rK_cIN-255" target="n1WhY-lI0MyOK2rK_cIN-61" edge="1">
          <mxGeometry relative="1" as="geometry" />
        </mxCell>
        <mxCell id="n1WhY-lI0MyOK2rK_cIN-255" value="Contain" style="shape=rhombus;perimeter=rhombusPerimeter;whiteSpace=wrap;html=1;align=center;" parent="1" vertex="1">
          <mxGeometry x="-390" y="-40" width="120" height="60" as="geometry" />
        </mxCell>
        <mxCell id="n1WhY-lI0MyOK2rK_cIN-261" style="edgeStyle=orthogonalEdgeStyle;rounded=0;orthogonalLoop=1;jettySize=auto;html=1;entryX=0.25;entryY=1;entryDx=0;entryDy=0;endArrow=ERmandOne;endFill=0;" parent="1" source="n1WhY-lI0MyOK2rK_cIN-256" target="n1WhY-lI0MyOK2rK_cIN-1" edge="1">
          <mxGeometry relative="1" as="geometry" />
        </mxCell>
        <mxCell id="n1WhY-lI0MyOK2rK_cIN-262" style="edgeStyle=orthogonalEdgeStyle;rounded=0;orthogonalLoop=1;jettySize=auto;html=1;exitX=0;exitY=0.5;exitDx=0;exitDy=0;entryX=1;entryY=0.75;entryDx=0;entryDy=0;endArrow=ERoneToMany;endFill=0;" parent="1" source="n1WhY-lI0MyOK2rK_cIN-256" target="n1WhY-lI0MyOK2rK_cIN-80" edge="1">
          <mxGeometry relative="1" as="geometry" />
        </mxCell>
        <mxCell id="n1WhY-lI0MyOK2rK_cIN-256" value="Occupy" style="shape=rhombus;perimeter=rhombusPerimeter;whiteSpace=wrap;html=1;align=center;" parent="1" vertex="1">
          <mxGeometry x="-810" y="-40" width="120" height="60" as="geometry" />
        </mxCell>
        <mxCell id="n1WhY-lI0MyOK2rK_cIN-269" style="edgeStyle=orthogonalEdgeStyle;rounded=0;orthogonalLoop=1;jettySize=auto;html=1;entryX=0.5;entryY=1;entryDx=0;entryDy=0;endArrow=ERoneToMany;endFill=0;" parent="1" source="n1WhY-lI0MyOK2rK_cIN-257" target="n1WhY-lI0MyOK2rK_cIN-131" edge="1">
          <mxGeometry relative="1" as="geometry">
            <Array as="points">
              <mxPoint x="590" y="160" />
              <mxPoint x="590" y="350" />
              <mxPoint x="395" y="350" />
            </Array>
          </mxGeometry>
        </mxCell>
        <mxCell id="n1WhY-lI0MyOK2rK_cIN-284" style="edgeStyle=orthogonalEdgeStyle;rounded=0;orthogonalLoop=1;jettySize=auto;html=1;entryX=0.5;entryY=1;entryDx=0;entryDy=0;endArrow=ERmandOne;endFill=0;" parent="1" source="n1WhY-lI0MyOK2rK_cIN-257" target="n1WhY-lI0MyOK2rK_cIN-40" edge="1">
          <mxGeometry relative="1" as="geometry">
            <Array as="points">
              <mxPoint x="695" y="-50" />
              <mxPoint x="448" y="-50" />
            </Array>
          </mxGeometry>
        </mxCell>
        <mxCell id="n1WhY-lI0MyOK2rK_cIN-257" value="Take" style="shape=rhombus;perimeter=rhombusPerimeter;whiteSpace=wrap;html=1;align=center;" parent="1" vertex="1">
          <mxGeometry x="635" y="130" width="120" height="60" as="geometry" />
        </mxCell>
        <mxCell id="n1WhY-lI0MyOK2rK_cIN-259" style="edgeStyle=orthogonalEdgeStyle;rounded=0;orthogonalLoop=1;jettySize=auto;html=1;exitX=0.5;exitY=0;exitDx=0;exitDy=0;entryX=0.395;entryY=1.068;entryDx=0;entryDy=0;entryPerimeter=0;endArrow=ERmandOne;endFill=0;" parent="1" source="n1WhY-lI0MyOK2rK_cIN-255" target="n1WhY-lI0MyOK2rK_cIN-1" edge="1">
          <mxGeometry relative="1" as="geometry" />
        </mxCell>
        <mxCell id="n1WhY-lI0MyOK2rK_cIN-287" style="edgeStyle=orthogonalEdgeStyle;rounded=0;orthogonalLoop=1;jettySize=auto;html=1;entryX=1;entryY=0.75;entryDx=0;entryDy=0;endArrow=ERmandOne;endFill=0;" parent="1" source="n1WhY-lI0MyOK2rK_cIN-273" target="n1WhY-lI0MyOK2rK_cIN-165" edge="1">
          <mxGeometry relative="1" as="geometry" />
        </mxCell>
        <mxCell id="n1WhY-lI0MyOK2rK_cIN-288" style="edgeStyle=orthogonalEdgeStyle;rounded=0;orthogonalLoop=1;jettySize=auto;html=1;entryX=0;entryY=0.75;entryDx=0;entryDy=0;endArrow=ERmany;endFill=0;" parent="1" source="n1WhY-lI0MyOK2rK_cIN-273" target="n1WhY-lI0MyOK2rK_cIN-199" edge="1">
          <mxGeometry relative="1" as="geometry" />
        </mxCell>
        <mxCell id="n1WhY-lI0MyOK2rK_cIN-273" value="Take" style="shape=rhombus;perimeter=rhombusPerimeter;whiteSpace=wrap;html=1;align=center;" parent="1" vertex="1">
          <mxGeometry x="-230" y="-420" width="120" height="60" as="geometry" />
        </mxCell>
        <mxCell id="n1WhY-lI0MyOK2rK_cIN-275" style="edgeStyle=orthogonalEdgeStyle;rounded=0;orthogonalLoop=1;jettySize=auto;html=1;entryX=0.25;entryY=1;entryDx=0;entryDy=0;endArrow=ERmany;endFill=0;" parent="1" source="n1WhY-lI0MyOK2rK_cIN-274" target="n1WhY-lI0MyOK2rK_cIN-148" edge="1">
          <mxGeometry relative="1" as="geometry" />
        </mxCell>
        <mxCell id="n1WhY-lI0MyOK2rK_cIN-283" style="edgeStyle=orthogonalEdgeStyle;rounded=0;orthogonalLoop=1;jettySize=auto;html=1;entryX=0.75;entryY=1;entryDx=0;entryDy=0;endArrow=ERmandOne;endFill=0;" parent="1" source="n1WhY-lI0MyOK2rK_cIN-274" target="n1WhY-lI0MyOK2rK_cIN-40" edge="1">
          <mxGeometry relative="1" as="geometry" />
        </mxCell>
        <mxCell id="n1WhY-lI0MyOK2rK_cIN-274" value="Provide" style="shape=rhombus;perimeter=rhombusPerimeter;whiteSpace=wrap;html=1;align=center;" parent="1" vertex="1">
          <mxGeometry x="675" y="-135" width="120" height="60" as="geometry" />
        </mxCell>
        <mxCell id="n1WhY-lI0MyOK2rK_cIN-278" style="edgeStyle=orthogonalEdgeStyle;rounded=0;orthogonalLoop=1;jettySize=auto;html=1;entryX=0.25;entryY=1;entryDx=0;entryDy=0;endArrow=ERoneToMany;endFill=0;" parent="1" source="n1WhY-lI0MyOK2rK_cIN-277" target="n1WhY-lI0MyOK2rK_cIN-199" edge="1">
          <mxGeometry relative="1" as="geometry" />
        </mxCell>
        <mxCell id="n1WhY-lI0MyOK2rK_cIN-281" style="edgeStyle=orthogonalEdgeStyle;rounded=0;orthogonalLoop=1;jettySize=auto;html=1;entryX=0;entryY=1;entryDx=0;entryDy=0;endArrow=ERmandOne;endFill=0;" parent="1" source="n1WhY-lI0MyOK2rK_cIN-277" target="n1WhY-lI0MyOK2rK_cIN-40" edge="1">
          <mxGeometry relative="1" as="geometry" />
        </mxCell>
        <mxCell id="n1WhY-lI0MyOK2rK_cIN-277" value="Give" style="shape=rhombus;perimeter=rhombusPerimeter;whiteSpace=wrap;html=1;align=center;" parent="1" vertex="1">
          <mxGeometry x="70" y="-280" width="120" height="60" as="geometry" />
        </mxCell>
        <mxCell id="n1WhY-lI0MyOK2rK_cIN-290" style="edgeStyle=orthogonalEdgeStyle;rounded=0;orthogonalLoop=1;jettySize=auto;html=1;entryX=0.75;entryY=1;entryDx=0;entryDy=0;endArrow=ERmandOne;endFill=0;" parent="1" source="n1WhY-lI0MyOK2rK_cIN-289" target="n1WhY-lI0MyOK2rK_cIN-165" edge="1">
          <mxGeometry relative="1" as="geometry">
            <Array as="points">
              <mxPoint x="-250" y="-370" />
              <mxPoint x="-355" y="-370" />
            </Array>
          </mxGeometry>
        </mxCell>
        <mxCell id="n1WhY-lI0MyOK2rK_cIN-293" style="edgeStyle=orthogonalEdgeStyle;rounded=0;orthogonalLoop=1;jettySize=auto;html=1;entryX=0.5;entryY=0;entryDx=0;entryDy=0;endArrow=ERmany;endFill=0;" parent="1" source="n1WhY-lI0MyOK2rK_cIN-289" target="n1WhY-lI0MyOK2rK_cIN-114" edge="1">
          <mxGeometry relative="1" as="geometry">
            <Array as="points">
              <mxPoint x="-250" y="-200" />
              <mxPoint x="385" y="-200" />
            </Array>
          </mxGeometry>
        </mxCell>
        <mxCell id="n1WhY-lI0MyOK2rK_cIN-289" value="Has" style="shape=rhombus;perimeter=rhombusPerimeter;whiteSpace=wrap;html=1;align=center;" parent="1" vertex="1">
          <mxGeometry x="-310" y="-330" width="120" height="60" as="geometry" />
        </mxCell>
        <mxCell id="n1WhY-lI0MyOK2rK_cIN-295" style="edgeStyle=orthogonalEdgeStyle;rounded=0;orthogonalLoop=1;jettySize=auto;html=1;entryX=1;entryY=0.5;entryDx=0;entryDy=0;endArrow=ERmandOne;endFill=0;" parent="1" source="n1WhY-lI0MyOK2rK_cIN-294" target="n1WhY-lI0MyOK2rK_cIN-165" edge="1">
          <mxGeometry relative="1" as="geometry">
            <Array as="points">
              <mxPoint x="-190" y="-600" />
              <mxPoint x="-190" y="-470" />
            </Array>
          </mxGeometry>
        </mxCell>
        <mxCell id="n1WhY-lI0MyOK2rK_cIN-296" style="edgeStyle=orthogonalEdgeStyle;rounded=0;orthogonalLoop=1;jettySize=auto;html=1;entryX=0.5;entryY=0;entryDx=0;entryDy=0;endArrow=ERmany;endFill=0;" parent="1" source="n1WhY-lI0MyOK2rK_cIN-294" target="n1WhY-lI0MyOK2rK_cIN-148" edge="1">
          <mxGeometry relative="1" as="geometry" />
        </mxCell>
        <mxCell id="n1WhY-lI0MyOK2rK_cIN-294" value="IsProvidedBy" style="shape=rhombus;perimeter=rhombusPerimeter;whiteSpace=wrap;html=1;align=center;" parent="1" vertex="1">
          <mxGeometry x="230" y="-630" width="120" height="60" as="geometry" />
        </mxCell>
        <mxCell id="n1WhY-lI0MyOK2rK_cIN-299" style="edgeStyle=orthogonalEdgeStyle;rounded=0;orthogonalLoop=1;jettySize=auto;html=1;entryX=0.5;entryY=1;entryDx=0;entryDy=0;endArrow=ERmandOne;endFill=0;" parent="1" source="n1WhY-lI0MyOK2rK_cIN-297" target="n1WhY-lI0MyOK2rK_cIN-80" edge="1">
          <mxGeometry relative="1" as="geometry">
            <Array as="points">
              <mxPoint x="-790" y="140" />
              <mxPoint x="-930" y="140" />
            </Array>
          </mxGeometry>
        </mxCell>
        <mxCell id="9W3uTWST-I6IH9JSmFU3-1" style="edgeStyle=orthogonalEdgeStyle;rounded=0;orthogonalLoop=1;jettySize=auto;html=1;entryX=1;entryY=0.5;entryDx=0;entryDy=0;endArrow=ERmandOne;endFill=0;" parent="1" source="n1WhY-lI0MyOK2rK_cIN-297" target="n1WhY-lI0MyOK2rK_cIN-182" edge="1">
          <mxGeometry relative="1" as="geometry" />
        </mxCell>
        <mxCell id="n1WhY-lI0MyOK2rK_cIN-297" value="Recieve" style="shape=rhombus;perimeter=rhombusPerimeter;whiteSpace=wrap;html=1;align=center;" parent="1" vertex="1">
          <mxGeometry x="-840" y="420" width="120" height="60" as="geometry" />
        </mxCell>
        <mxCell id="n1WhY-lI0MyOK2rK_cIN-300" value="PrescriptionDetails" style="whiteSpace=wrap;html=1;align=center;" parent="1" vertex="1">
          <mxGeometry x="400" y="500" width="150" height="100" as="geometry" />
        </mxCell>
        <mxCell id="n1WhY-lI0MyOK2rK_cIN-301" value="Frequency" style="ellipse;whiteSpace=wrap;html=1;align=center;" parent="1" vertex="1">
          <mxGeometry x="270" y="580" width="100" height="40" as="geometry" />
        </mxCell>
        <mxCell id="n1WhY-lI0MyOK2rK_cIN-302" value="DrugID" style="ellipse;whiteSpace=wrap;html=1;align=center;" parent="1" vertex="1">
          <mxGeometry x="360" y="660" width="150" height="40" as="geometry" />
        </mxCell>
        <mxCell id="n1WhY-lI0MyOK2rK_cIN-303" value="Dosage" style="ellipse;whiteSpace=wrap;html=1;align=center;" parent="1" vertex="1">
          <mxGeometry x="270" y="630" width="100" height="40" as="geometry" />
        </mxCell>
        <mxCell id="n1WhY-lI0MyOK2rK_cIN-304" style="edgeStyle=orthogonalEdgeStyle;rounded=0;orthogonalLoop=1;jettySize=auto;html=1;entryX=1;entryY=0.25;entryDx=0;entryDy=0;endArrow=none;startFill=0;" parent="1" source="n1WhY-lI0MyOK2rK_cIN-305" target="n1WhY-lI0MyOK2rK_cIN-300" edge="1">
          <mxGeometry relative="1" as="geometry" />
        </mxCell>
        <mxCell id="n1WhY-lI0MyOK2rK_cIN-305" value="PrescriptionID" style="ellipse;whiteSpace=wrap;html=1;align=center;" parent="1" vertex="1">
          <mxGeometry x="500" y="440" width="100" height="40" as="geometry" />
        </mxCell>
        <mxCell id="n1WhY-lI0MyOK2rK_cIN-306" style="edgeStyle=orthogonalEdgeStyle;rounded=0;orthogonalLoop=1;jettySize=auto;html=1;entryX=0.5;entryY=0;entryDx=0;entryDy=0;endArrow=none;startFill=0;" parent="1" source="n1WhY-lI0MyOK2rK_cIN-307" target="n1WhY-lI0MyOK2rK_cIN-300" edge="1">
          <mxGeometry relative="1" as="geometry" />
        </mxCell>
        <mxCell id="n1WhY-lI0MyOK2rK_cIN-307" value="&lt;u&gt;PrescriptionDetailID&lt;/u&gt;" style="ellipse;whiteSpace=wrap;html=1;align=center;" parent="1" vertex="1">
          <mxGeometry x="400" y="420" width="110" height="40" as="geometry" />
        </mxCell>
        <mxCell id="n1WhY-lI0MyOK2rK_cIN-308" style="edgeStyle=orthogonalEdgeStyle;rounded=0;orthogonalLoop=1;jettySize=auto;html=1;entryX=0;entryY=0;entryDx=0;entryDy=0;endArrow=none;startFill=0;" parent="1" source="n1WhY-lI0MyOK2rK_cIN-309" target="n1WhY-lI0MyOK2rK_cIN-300" edge="1">
          <mxGeometry relative="1" as="geometry" />
        </mxCell>
        <mxCell id="n1WhY-lI0MyOK2rK_cIN-309" value="Duration" style="ellipse;whiteSpace=wrap;html=1;align=center;" parent="1" vertex="1">
          <mxGeometry x="260" y="430" width="100" height="40" as="geometry" />
        </mxCell>
        <mxCell id="n1WhY-lI0MyOK2rK_cIN-310" style="edgeStyle=orthogonalEdgeStyle;rounded=0;orthogonalLoop=1;jettySize=auto;html=1;entryX=0;entryY=0.25;entryDx=0;entryDy=0;endArrow=none;startFill=0;" parent="1" source="n1WhY-lI0MyOK2rK_cIN-311" target="n1WhY-lI0MyOK2rK_cIN-300" edge="1">
          <mxGeometry relative="1" as="geometry" />
        </mxCell>
        <mxCell id="n1WhY-lI0MyOK2rK_cIN-311" value="SpecialInstructions" style="ellipse;whiteSpace=wrap;html=1;align=center;" parent="1" vertex="1">
          <mxGeometry x="260" y="480" width="100" height="40" as="geometry" />
        </mxCell>
        <mxCell id="n1WhY-lI0MyOK2rK_cIN-314" style="edgeStyle=orthogonalEdgeStyle;rounded=0;orthogonalLoop=1;jettySize=auto;html=1;entryX=-0.01;entryY=0.92;entryDx=0;entryDy=0;entryPerimeter=0;endArrow=none;startFill=0;" parent="1" source="n1WhY-lI0MyOK2rK_cIN-301" target="n1WhY-lI0MyOK2rK_cIN-300" edge="1">
          <mxGeometry relative="1" as="geometry" />
        </mxCell>
        <mxCell id="n1WhY-lI0MyOK2rK_cIN-315" style="edgeStyle=orthogonalEdgeStyle;rounded=0;orthogonalLoop=1;jettySize=auto;html=1;entryX=0.09;entryY=0.98;entryDx=0;entryDy=0;entryPerimeter=0;endArrow=none;startFill=0;" parent="1" source="n1WhY-lI0MyOK2rK_cIN-303" target="n1WhY-lI0MyOK2rK_cIN-300" edge="1">
          <mxGeometry relative="1" as="geometry" />
        </mxCell>
        <mxCell id="n1WhY-lI0MyOK2rK_cIN-316" style="edgeStyle=orthogonalEdgeStyle;rounded=0;orthogonalLoop=1;jettySize=auto;html=1;entryX=0.32;entryY=1.03;entryDx=0;entryDy=0;entryPerimeter=0;endArrow=none;startFill=0;" parent="1" source="n1WhY-lI0MyOK2rK_cIN-302" target="n1WhY-lI0MyOK2rK_cIN-300" edge="1">
          <mxGeometry relative="1" as="geometry" />
        </mxCell>
        <mxCell id="n1WhY-lI0MyOK2rK_cIN-318" style="edgeStyle=orthogonalEdgeStyle;rounded=0;orthogonalLoop=1;jettySize=auto;html=1;entryX=1;entryY=0.5;entryDx=0;entryDy=0;endArrow=ERoneToMany;endFill=0;" parent="1" source="n1WhY-lI0MyOK2rK_cIN-317" target="n1WhY-lI0MyOK2rK_cIN-300" edge="1">
          <mxGeometry relative="1" as="geometry" />
        </mxCell>
        <mxCell id="n1WhY-lI0MyOK2rK_cIN-319" style="edgeStyle=orthogonalEdgeStyle;rounded=0;orthogonalLoop=1;jettySize=auto;html=1;entryX=0.5;entryY=1;entryDx=0;entryDy=0;endArrow=ERmandOne;endFill=0;" parent="1" source="n1WhY-lI0MyOK2rK_cIN-317" target="n1WhY-lI0MyOK2rK_cIN-148" edge="1">
          <mxGeometry relative="1" as="geometry" />
        </mxCell>
        <mxCell id="n1WhY-lI0MyOK2rK_cIN-317" value="Relationship" style="shape=rhombus;perimeter=rhombusPerimeter;whiteSpace=wrap;html=1;align=center;" parent="1" vertex="1">
          <mxGeometry x="630" y="540" width="120" height="60" as="geometry" />
        </mxCell>
        <mxCell id="n1WhY-lI0MyOK2rK_cIN-321" style="edgeStyle=orthogonalEdgeStyle;rounded=0;orthogonalLoop=1;jettySize=auto;html=1;entryX=0.5;entryY=1;entryDx=0;entryDy=0;endArrow=ERmandOne;endFill=0;" parent="1" source="n1WhY-lI0MyOK2rK_cIN-320" target="n1WhY-lI0MyOK2rK_cIN-216" edge="1">
          <mxGeometry relative="1" as="geometry" />
        </mxCell>
        <mxCell id="n1WhY-lI0MyOK2rK_cIN-322" style="edgeStyle=orthogonalEdgeStyle;rounded=0;orthogonalLoop=1;jettySize=auto;html=1;entryX=0;entryY=0.5;entryDx=0;entryDy=0;endArrow=ERmany;endFill=0;" parent="1" source="n1WhY-lI0MyOK2rK_cIN-320" target="n1WhY-lI0MyOK2rK_cIN-300" edge="1">
          <mxGeometry relative="1" as="geometry" />
        </mxCell>
        <mxCell id="n1WhY-lI0MyOK2rK_cIN-320" value="Relationship" style="shape=rhombus;perimeter=rhombusPerimeter;whiteSpace=wrap;html=1;align=center;" parent="1" vertex="1">
          <mxGeometry x="-35" y="470" width="120" height="60" as="geometry" />
        </mxCell>
      </root>
    </mxGraphModel>
  </diagram>
</mxfile>
